<svg xmlns:xlink="http://www.w3.org/1999/xlink" xmlns="http://www.w3.org/2000/svg" class="search-clear-icon" fill="#111" height="30" width="30" viewBox="0 0 24 24"><path d="M22 20H7.3c-.3 0-.6-.1-.8-.4l-5.3-7c-.3-.4-.3-.9 0-1.2l5.3-7c.2-.3.5-.4.8-.4H22c.6 0 1 .4 1 1v14c0 .6-.4 1-1 1zM7.8 18H21V6H7.8l-4.6 6 4.6 6zm8.2-3c-.3 0-.5-.1-.7-.3L14 13.4l-1.3 1.3c-.4.4-1 .4-1.4 0s-.4-1 0-1.4l1.3-1.3-1.3-1.3c-.4-.4-.4-1 0-1.4s1-.4 1.4 0l1.3 1.3 1.3-1.3c.4-.4 1-.4 1.4 0s.4 1 0 1.4L15.4 12l1.3 1.3c.4.4.4 1 0 1.4-.2.2-.5.3-.7.3z" fill="#111111"></path></svg>